<svg xmlns="http://www.w3.org/2000/svg" viewBox="0 0 341.46 152.94"><title>l_duke-ce</title><path d="M21.29,114.34c-5,0-11.33.69-15.45,0.69-0.86,0-3.09,0-3.09-1.72,0-1.37,1.2-2.92,6.35-3.78,3.78-.69,7.72-1.2,7.72-11.16V17.68c0-3.26-7.21-2.92-11.67-3.26C1.2,14.08,0,14.08,0,12.19,0,9.27,4.63,9.27,6.7,9.27H22.32c8.41,0,16.48-1,27.47-1C85.84,8.24,115,26.09,115,67.47c0,25.75-23.69,46.87-53.22,46.87H21.29Zm10.3-21.46c0,12,10.82,17.34,22,17.34,13.39,0,45.32-11.16,45.32-46C98.89,29,67.3,13.39,46,13.39c-14.08,0-14.42,3.09-14.42,5.49v74Z" fill="#21376c"/><path d="M130.13,93c0-10.47.34-26.44,0.34-36.57,0-2.4-2.92-2.75-5-3.26-4.12-1-5.15-1.37-5.15-2.58,0-1.54,1.89-1.54,4.29-1.54s4.81,0.34,7.38.34c2.4,0,5-.34,7.55-0.34,2.23,0,2.57.86,2.57,3.26,0,15.28-.34,30.56-0.34,45.84,0,7,5.15,11,13.56,11,19.05,0,20.43-8.07,20.6-15.11,0-12.19.34-24.55,0.34-36.74,0-2.06-.86-2.06-8.93-4.12-1.37-.34-5-1.37-5-2.75,0-1,1.89-1.37,3.78-1.37,2.92,0,5.84.34,8.76,0.34,3.43,0,6.7-.34,10.13-0.34a3.35,3.35,0,0,1,3.61,3.61c0,17.34-.69,34.68-0.69,52,0,3.61,2.92,4.12,4.46,4.12,6.7,0,8.93,0,8.93,1.72,0,1.37-.86,1.72-3.43,2.06-12,1.89-19.05,3.43-20.6,3.43-1.37,0-1.37-1.2-1.37-2.75v-3.95c0-1.37-.34-2.06-1.2-2.06-2.75,0-10.13,10.13-24,10.13C134.59,117.43,130.13,107.64,130.13,93Z" fill="#21376c"/><path d="M215.45,16.65c0-9.1-8.41-6.18-8.41-9.44,0-1.2,1.2-1.55,3.61-2.4l11.67-4.46A8,8,0,0,1,225.24,0c0.86,0,1.89.51,1.89,3.09V73.65c0,1.89.34,2.75,1.54,2.75,1.72,0,28-15.45,28-18.54,0-4.46-6.52-4.46-6.52-7,0-.86,1.37-1.72,2.4-1.72,3.61,0,8.76.34,13.22,0.34,4.29,0,9.44-.34,12.87-0.34,1.54,0,3.26.34,3.26,2.06,0,1.89-6,3.09-8.41,4.12-5,2.23-33.13,18.54-33.13,20.43a3.37,3.37,0,0,0,1.37,2.4l29.7,27c7,6.35,13.56,5.84,13.56,8.24,0,0.86-1.72,1.72-4.46,1.72-3.61,0-8.07-.69-13.22-0.69-4.46,0-8.58.69-12.7,0.69-3.61,0-5.15-.17-5.15-1.72s2.06-2.06,5-2.4c1.72-.17,3.26-1.2,3.26-2.4,0-.86-0.86-1.72-1.89-2.75L229.87,81.2a3.43,3.43,0,0,0-1.54-1c-0.69,0-1.2.17-1.2,0.86v24.38c0,3.78,2.23,5,3.78,5.49,2.75,0.86,5,.86,5,2.4,0,1.37-2.23,1.72-3.95,1.72-4.12,0-7.72-.69-11.5-0.69-4.12,0-9.44.69-12.36,0.69-1,0-4.12-.17-4.12-1.72s1.37-1.89,3.09-2.4c4.81-1.37,8.41-.86,8.41-8.07V16.65Z" fill="#21376c"/><path d="M296.14,74.51a26.38,26.38,0,0,0-.34,6c0,14.42,3.95,28.67,24.89,28.67,13.22,0,13.56-6.87,16.31-6.87a1.4,1.4,0,0,1,1.55,1.37c0,1.2-7.21,13.73-25.06,13.73-18.88,0-29.7-13.39-29.7-34.85,0-16.14,10-36.22,31.24-36.22,19.74,0,26.44,16.82,26.44,24.21,0,3.09-.52,3.95-3.43,3.95H296.14Zm34-13.56c0-5.84-5.49-10.47-12.7-10.47-12.36,0-19.74,12-19.74,17.34,0,1.2.34,1.54,14.94,1.54C327.73,69.36,330.13,67.13,330.13,60.94Z" fill="#21376c"/><path d="M15.36,152.94c-4.42,0-7.23-3.64-7.23-8.82s2.81-8.83,7.23-8.83a6.13,6.13,0,0,1,5.82,3.2l-2.27,1.42a3.7,3.7,0,0,0-3.54-2.05c-3,0-4.59,2.42-4.59,6.26s1.61,6.26,4.59,6.26a4.07,4.07,0,0,0,3.77-2.13l2.13,1.42A6.52,6.52,0,0,1,15.36,152.94Z" fill="#21376c"/><path d="M33.07,152.94c-4.42,0-7.23-3.64-7.23-8.82s2.81-8.83,7.23-8.83,7.26,3.64,7.26,8.83S37.52,152.94,33.07,152.94Zm0-15.08c-3,0-4.62,2.42-4.62,6.26s1.64,6.26,4.62,6.26,4.64-2.42,4.64-6.26S36.08,137.86,33.07,137.86Z" fill="#21376c"/><path d="M55.57,145.68l3.5,7h-3l-3.4-6.77H48.85v6.77H46.33V135.56h7.5c3,0,5.5,1.59,5.5,5.11A4.74,4.74,0,0,1,55.57,145.68ZM53.84,138h-5v5.5h5c1.71,0,2.91-.88,2.91-2.74A2.62,2.62,0,0,0,53.84,138Z" fill="#21376c"/><path d="M72.44,146.29H68v6.38H65.45V135.56h7.16c3.15,0,5.5,1.81,5.5,5.35S75.76,146.29,72.44,146.29ZM72.56,138H68v5.89h4.59a2.66,2.66,0,0,0,2.93-3A2.7,2.7,0,0,0,72.56,138Z" fill="#21376c"/><path d="M90.25,152.94c-4.42,0-7.23-3.64-7.23-8.82s2.81-8.83,7.23-8.83,7.26,3.64,7.26,8.83S94.7,152.94,90.25,152.94Zm0-15.08c-3,0-4.62,2.42-4.62,6.26s1.64,6.26,4.62,6.26,4.64-2.42,4.64-6.26S93.26,137.86,90.25,137.86Z" fill="#21376c"/><path d="M112.75,145.68l3.49,7h-3l-3.4-6.77H106v6.77h-2.52V135.56H111c3,0,5.5,1.59,5.5,5.11A4.74,4.74,0,0,1,112.75,145.68ZM111,138h-5v5.5h5c1.71,0,2.91-.88,2.91-2.74A2.62,2.62,0,0,0,111,138Z" fill="#21376c"/><path d="M133.94,152.67l-1.44-4.06h-6.84l-1.42,4.06h-2.66l6.16-17.11h2.71l6.23,17.11h-2.74Zm-3.59-10.29c-0.41-1.22-1.1-3.2-1.29-3.93-0.2.73-.81,2.69-1.25,4l-1.37,3.91h5.28Z" fill="#21376c"/><path d="M146.57,138.08v14.59H144V138.08h-5v-2.52h12.54v2.52h-5Z" fill="#21376c"/><path d="M157,152.67V135.56h11v2.49h-8.46v4.23h4.91v2.49h-4.91v5.4h8.82v2.49H157Z" fill="#21376c"/><path d="M183.49,152.67V135.56h11v2.49h-8.46v4.23H191v2.49h-4.92v5.4h8.82v2.49H183.49Z" fill="#21376c"/><path d="M205.1,152.67h-4.67V135.56h4.67c4.59,0,8.33,2.52,8.33,8.55S209.57,152.67,205.1,152.67Zm0-14.62H203v12.13h2.1c4.06,0,5.72-2.47,5.72-6.06S209.16,138.05,205.1,138.05Z" fill="#21376c"/><path d="M225.63,152.94c-4.23,0-6.43-2.74-6.43-7.45v-9.92h2.56v9.85c0,3.23,1.35,5,3.91,5s4-1.66,4-4.79v-10h2.57v10C232.21,150.33,229.89,152.94,225.63,152.94Z" fill="#21376c"/><path d="M245.29,152.94c-4.42,0-7.24-3.64-7.24-8.82s2.81-8.83,7.24-8.83a6.13,6.13,0,0,1,5.82,3.2l-2.27,1.42a3.71,3.71,0,0,0-3.54-2.05c-3,0-4.6,2.42-4.6,6.26s1.62,6.26,4.6,6.26a4.07,4.07,0,0,0,3.76-2.13l2.13,1.42A6.52,6.52,0,0,1,245.29,152.94Z" fill="#21376c"/><path d="M268.12,152.67l-1.44-4.06h-6.84l-1.42,4.06h-2.66l6.16-17.11h2.71l6.23,17.11h-2.74Zm-3.59-10.29c-0.42-1.22-1.1-3.2-1.29-3.93-0.2.73-.81,2.69-1.25,4l-1.37,3.91h5.28Z" fill="#21376c"/><path d="M280.76,138.08v14.59h-2.57V138.08h-5v-2.52h12.54v2.52h-5Z" fill="#21376c"/><path d="M291.22,152.67V135.56h2.57v17.11h-2.57Z" fill="#21376c"/><path d="M307.08,152.94c-4.42,0-7.23-3.64-7.23-8.82s2.81-8.83,7.23-8.83,7.26,3.64,7.26,8.83S311.53,152.94,307.08,152.94Zm0-15.08c-3,0-4.62,2.42-4.62,6.26s1.64,6.26,4.62,6.26,4.65-2.42,4.65-6.26S310.09,137.86,307.08,137.86Z" fill="#21376c"/><path d="M330.9,152.67l-6.82-10.73c-0.42-.64-1-1.66-1.27-2.1,0,0.63,0,3,0,4v8.87h-2.5V135.56H323l6.5,10.44c0.44,0.71,1.17,2,1.42,2.42,0-.63,0-3.08,0-4v-8.82h2.49v17.11H330.9Z" fill="#21376c"/></svg>