<svg xmlns="http://www.w3.org/2000/svg" viewBox="0 0 436.35 117.43"><title>l_duke-ce-long</title><path d="M21.29,114.34c-5,0-11.33.69-15.45,0.69-0.86,0-3.09,0-3.09-1.72,0-1.37,1.2-2.92,6.35-3.78,3.78-.69,7.72-1.2,7.72-11.16V17.68c0-3.26-7.21-2.92-11.67-3.26C1.2,14.08,0,14.08,0,12.19,0,9.27,4.63,9.27,6.7,9.27H22.32c8.41,0,16.48-1,27.47-1C85.84,8.24,115,26.09,115,67.47c0,25.75-23.69,46.87-53.22,46.87H21.29Zm10.3-21.46c0,12,10.82,17.34,22,17.34,13.39,0,45.32-11.16,45.32-46C98.89,29,67.3,13.39,46,13.39c-14.08,0-14.42,3.09-14.42,5.49v74Z" fill="#fff"/><path d="M130.13,93c0-10.47.34-26.44,0.34-36.57,0-2.4-2.92-2.75-5-3.26-4.12-1-5.15-1.37-5.15-2.58,0-1.54,1.89-1.54,4.29-1.54s4.81,0.34,7.38.34c2.4,0,5-.34,7.55-0.34,2.23,0,2.57.86,2.57,3.26,0,15.28-.34,30.56-0.34,45.84,0,7,5.15,11,13.56,11,19.05,0,20.43-8.07,20.6-15.11,0-12.19.34-24.55,0.34-36.74,0-2.06-.86-2.06-8.93-4.12-1.37-.34-5-1.37-5-2.75,0-1,1.89-1.37,3.78-1.37,2.92,0,5.84.34,8.76,0.34,3.43,0,6.7-.34,10.13-0.34a3.35,3.35,0,0,1,3.61,3.61c0,17.34-.69,34.68-0.69,52,0,3.61,2.92,4.12,4.46,4.12,6.7,0,8.93,0,8.93,1.72,0,1.37-.86,1.72-3.44,2.06-12,1.89-19.05,3.43-20.6,3.43-1.37,0-1.37-1.2-1.37-2.75v-3.95c0-1.37-.34-2.06-1.2-2.06-2.75,0-10.13,10.13-24,10.13C134.59,117.43,130.13,107.64,130.13,93Z" fill="#fff"/><path d="M215.45,16.65c0-9.1-8.41-6.18-8.41-9.44,0-1.2,1.2-1.54,3.61-2.4l11.67-4.46A8.07,8.07,0,0,1,225.24,0c0.86,0,1.89.51,1.89,3.09V73.65c0,1.89.34,2.75,1.55,2.75,1.72,0,28-15.45,28-18.54,0-4.46-6.52-4.46-6.52-7,0-.86,1.37-1.72,2.4-1.72,3.61,0,8.76.34,13.22,0.34,4.29,0,9.44-.34,12.88-0.34,1.54,0,3.26.34,3.26,2.06,0,1.89-6,3.09-8.41,4.12-5,2.23-33.13,18.54-33.13,20.43a3.36,3.36,0,0,0,1.37,2.4l29.7,27c7,6.35,13.56,5.84,13.56,8.24,0,0.86-1.72,1.72-4.46,1.72-3.61,0-8.07-.69-13.22-0.69-4.46,0-8.58.69-12.71,0.69-3.6,0-5.15-.17-5.15-1.72s2.06-2.06,5-2.4c1.72-.17,3.26-1.2,3.26-2.4,0-.86-0.86-1.72-1.89-2.75L229.87,81.2a3.42,3.42,0,0,0-1.54-1c-0.69,0-1.2.17-1.2,0.86v24.38c0,3.78,2.23,5,3.78,5.49,2.75,0.86,5,.86,5,2.4,0,1.38-2.23,1.72-3.95,1.72-4.12,0-7.73-.69-11.5-0.69-4.12,0-9.44.69-12.36,0.69-1,0-4.12-.17-4.12-1.72s1.37-1.89,3.09-2.4c4.81-1.37,8.41-.86,8.41-8.07V16.65Z" fill="#fff"/><path d="M296.14,74.51a26.39,26.39,0,0,0-.34,6c0,14.42,3.95,28.67,24.89,28.67,13.22,0,13.56-6.87,16.31-6.87a1.4,1.4,0,0,1,1.54,1.37c0,1.2-7.21,13.73-25.06,13.73-18.88,0-29.7-13.39-29.7-34.85,0-16.14,10-36.22,31.24-36.22,19.74,0,26.44,16.82,26.44,24.21,0,3.09-.52,3.95-3.43,3.95H296.14Zm34-13.56c0-5.84-5.49-10.47-12.7-10.47-12.36,0-19.74,12-19.74,17.34,0,1.2.34,1.54,14.94,1.54C327.73,69.36,330.13,67.13,330.13,60.94Z" fill="#fff"/><path d="M372.91,57.78c-13.34,0-22.08-12.1-22.08-28.09,0-16.23,9.13-28.25,22.32-28.25,7.49,0,13.11,2.81,17.4,8.74l-4.84,3.67C382.19,9.08,378.92,7,373,7c-9.36,0-16.08,9.29-16.08,22.55s6.95,22.71,16.15,22.71c5.93,0,10-2.65,13.5-7.18l4.21,3.67A21.47,21.47,0,0,1,372.91,57.78Z" fill="#fff"/><path d="M402.17,56.92V2.29h33V7.83H408.26V25h15.61v5.54H408.26V51.38h28.09v5.54H402.17Z" fill="#fff"/></svg>